<svg xmlns="http://www.w3.org/2000/svg" viewBox="0 0 158 193" width="158" height="193" color="#000000" aria-hidden="true">
  <path fill="currentColor" fill-rule="evenodd" d="
    M 113.00 15.50 L 111.00 15.50 L 107.00 11.50 L 91.00 4.50 L 77.00 5.50 L 75.00 7.50 L 68.00 10.50 L 63.00 15.50 L 59.00 15.50 L 57.50 14.00 L 57.50 10.00 L 67.00 2.50 L 69.00 2.50 L 74.00 0.00 L 99.00 0.00 L 108.00 3.50 L 115.50 10.00 L 115.50 13.00 L 113.00 15.50 Z
    M 69.00 23.50 L 65.50 21.00 L 65.50 18.00 L 69.00 14.50 L 78.00 9.50 L 84.00 9.50 L 85.00 8.50 L 95.00 9.50 L 100.00 11.50 L 107.50 18.00 L 107.50 21.00 L 106.00 22.50 L 103.00 22.50 L 97.00 17.50 L 90.00 15.50 L 83.00 15.50 L 75.00 18.50 L 69.00 23.50 Z
    M 97.00 30.50 L 91.00 26.50 L 82.00 26.50 L 78.00 30.50 L 76.00 30.50 L 73.50 29.00 L 73.50 25.00 L 81.00 19.50 L 88.00 18.50 L 92.00 19.50 L 99.50 25.00 L 99.50 29.00 L 97.00 30.50 Z
    M 88.00 41.50 L 83.00 40.50 L 80.50 37.00 L 81.50 33.00 L 85.00 30.50 L 89.00 30.50 L 92.50 34.00 L 92.50 38.00 L 88.00 41.50 Z
    M 70.00 149.50 L 66.00 149.50 L 50.50 133.00 L 50.50 131.00 L 57.50 121.00 L 57.50 119.00 L 60.50 114.00 L 71.50 104.00 L 94.50 78.00 L 126.00 47.50 L 142.00 40.50 L 156.00 39.50 L 157.50 41.00 L 157.50 51.00 L 155.50 55.00 L 154.50 61.00 L 152.50 64.00 L 152.50 67.00 L 144.50 80.00 L 108.50 116.00 L 91.00 135.50 L 85.00 140.50 L 70.00 149.50 Z
    M 13.00 126.50 L 9.00 126.50 L 0.00 116.00 L 0.00 112.00 L 5.50 104.00 L 7.50 99.00 L 45.00 61.50 L 58.00 54.50 L 69.00 53.50 L 70.50 55.00 L 70.50 63.00 L 63.50 79.00 L 57.50 85.00 L 54.50 90.00 L 26.00 118.50 L 21.00 120.50 L 13.00 126.50 Z
    M 92.50 121.00 L 115.50 98.00 L 118.50 93.00 L 137.50 75.00 L 138.50 73.00 L 137.50 71.00 L 126.00 60.50 L 124.00 60.50 L 104.50 82.00 L 78.50 108.00 L 92.50 121.00 Z
    M 29.50 105.00 L 56.50 78.00 L 48.00 68.50 L 45.00 69.50 L 19.50 96.00 L 28.00 105.50 L 29.50 105.00 Z
    M 98.00 192.50 L 93.00 192.50 L 82.50 181.00 L 89.50 168.00 L 127.00 128.50 L 130.00 127.50 L 136.00 122.50 L 147.00 119.50 L 153.00 119.50 L 154.50 121.00 L 154.50 128.00 L 152.50 136.00 L 145.50 148.00 L 110.00 184.50 L 101.00 189.50 L 98.00 192.50 Z
    M 113.50 171.00 L 140.50 144.00 L 132.00 134.50 L 129.00 135.50 L 103.50 162.00 L 112.00 171.50 L 113.50 171.00 Z
  "/>
</svg>
