<svg xmlns="http://www.w3.org/2000/svg" viewBox="0 0 512 512" width="512" height="512">
  <path d="M 60.00 313.00 L 60.00 315.00 L 59.00 316.00 L 59.00 318.00 L 58.00 319.00 L 58.00 320.00 L 57.00 321.00 L 57.00 323.00 L 55.00 326.00 L 55.00 328.00 L 54.00 329.00 L 54.00 332.00 L 53.00 333.00 L 53.00 335.00 L 52.00 336.00 L 52.00 339.00 L 51.00 340.00 L 51.00 343.00 L 50.00 344.00 L 50.00 347.00 L 49.00 348.00 L 49.00 352.00 L 48.00 353.00 L 48.00 357.00 L 47.00 358.00 L 47.00 362.00 L 46.00 363.00 L 46.00 368.00 L 45.00 369.00 L 45.00 375.00 L 44.00 376.00 L 44.00 383.00 L 43.00 384.00 L 43.00 394.00 L 42.00 395.00 L 42.00 437.00 L 43.00 438.00 L 43.00 444.00 L 44.00 445.00 L 44.00 448.00 L 45.00 449.00 L 45.00 452.00 L 46.00 453.00 L 46.00 455.00 L 47.00 456.00 L 47.00 458.00 L 48.00 459.00 L 48.00 461.00 L 49.00 462.00 L 49.00 463.00 L 50.00 464.00 L 50.00 465.00 L 51.00 466.00 L 51.00 467.00 L 52.00 468.00 L 53.00 471.00 L 55.00 473.00 L 55.00 474.00 L 57.00 476.00 L 57.00 477.00 L 60.00 480.00 L 60.00 481.00 L 71.00 492.00 L 72.00 492.00 L 75.00 495.00 L 76.00 495.00 L 81.00 499.00 L 82.00 499.00 L 83.00 500.00 L 84.00 500.00 L 85.00 501.00 L 86.00 501.00 L 91.00 504.00 L 93.00 504.00 L 96.00 506.00 L 98.00 506.00 L 99.00 507.00 L 101.00 507.00 L 102.00 508.00 L 105.00 508.00 L 106.00 509.00 L 110.00 509.00 L 111.00 510.00 L 117.00 510.00 L 118.00 511.00 L 392.00 511.00 L 393.00 510.00 L 399.00 510.00 L 400.00 509.00 L 404.00 509.00 L 405.00 508.00 L 408.00 508.00 L 409.00 507.00 L 411.00 507.00 L 412.00 506.00 L 414.00 506.00 L 415.00 505.00 L 417.00 505.00 L 418.00 504.00 L 419.00 504.00 L 420.00 503.00 L 421.00 503.00 L 422.00 502.00 L 423.00 502.00 L 424.00 501.00 L 425.00 501.00 L 426.00 500.00 L 427.00 500.00 L 428.00 499.00 L 431.00 498.00 L 434.00 495.00 L 435.00 495.00 L 437.00 493.00 L 438.00 493.00 L 451.00 480.00 L 451.00 479.00 L 454.00 476.00 L 454.00 475.00 L 456.00 473.00 L 457.00 470.00 L 459.00 468.00 L 459.00 466.00 L 460.00 465.00 L 460.00 464.00 L 463.00 459.00 L 463.00 457.00 L 464.00 456.00 L 464.00 454.00 L 465.00 453.00 L 465.00 450.00 L 466.00 449.00 L 466.00 445.00 L 467.00 444.00 L 467.00 439.00 L 468.00 438.00 L 468.00 427.00 L 469.00 426.00 L 469.00 417.00 L 468.00 416.00 L 468.00 393.00 L 467.00 392.00 L 467.00 383.00 L 466.00 382.00 L 466.00 375.00 L 465.00 374.00 L 465.00 368.00 L 464.00 367.00 L 464.00 362.00 L 463.00 361.00 L 463.00 357.00 L 462.00 356.00 L 462.00 352.00 L 461.00 351.00 L 461.00 347.00 L 460.00 346.00 L 460.00 343.00 L 459.00 342.00 L 459.00 339.00 L 458.00 338.00 L 458.00 336.00 L 457.00 335.00 L 457.00 332.00 L 456.00 331.00 L 456.00 329.00 L 455.00 328.00 L 455.00 326.00 L 454.00 325.00 L 454.00 323.00 L 452.00 320.00 L 452.00 318.00 L 450.00 315.00 L 450.00 313.00 L 449.00 312.00 L 449.00 311.00 L 448.00 310.00 L 448.00 309.00 L 447.00 308.00 L 447.00 307.00 L 446.00 306.00 L 446.00 305.00 L 445.00 304.00 L 445.00 303.00 L 444.00 302.00 L 444.00 301.00 L 443.00 300.00 L 442.00 297.00 L 440.00 295.00 L 440.00 294.00 L 439.00 293.00 L 439.00 292.00 L 437.00 290.00 L 437.00 289.00 L 431.00 282.00 L 431.00 281.00 L 416.00 266.00 L 415.00 266.00 L 413.00 264.00 L 412.00 264.00 L 407.00 260.00 L 406.00 260.00 L 405.00 259.00 L 404.00 259.00 L 403.00 258.00 L 402.00 258.00 L 401.00 257.00 L 400.00 257.00 L 399.00 256.00 L 398.00 256.00 L 393.00 253.00 L 391.00 253.00 L 390.00 252.00 L 388.00 252.00 L 387.00 251.00 L 384.00 251.00 L 383.00 250.00 L 380.00 250.00 L 379.00 249.00 L 376.00 249.00 L 375.00 248.00 L 368.00 248.00 L 367.00 247.00 L 352.00 247.00 L 351.00 248.00 L 349.00 248.00 L 348.00 249.00 L 347.00 249.00 L 346.00 250.00 L 345.00 250.00 L 344.00 251.00 L 343.00 251.00 L 342.00 252.00 L 339.00 253.00 L 337.00 255.00 L 336.00 255.00 L 334.00 257.00 L 331.00 258.00 L 329.00 260.00 L 328.00 260.00 L 326.00 262.00 L 325.00 262.00 L 320.00 266.00 L 317.00 267.00 L 312.00 271.00 L 311.00 271.00 L 310.00 272.00 L 309.00 272.00 L 304.00 275.00 L 302.00 275.00 L 299.00 277.00 L 297.00 277.00 L 296.00 278.00 L 294.00 278.00 L 291.00 280.00 L 289.00 280.00 L 288.00 281.00 L 286.00 281.00 L 285.00 282.00 L 282.00 282.00 L 281.00 283.00 L 278.00 283.00 L 277.00 284.00 L 273.00 284.00 L 272.00 285.00 L 266.00 285.00 L 265.00 286.00 L 245.00 286.00 L 244.00 285.00 L 238.00 285.00 L 237.00 284.00 L 233.00 284.00 L 232.00 283.00 L 229.00 283.00 L 228.00 282.00 L 225.00 282.00 L 224.00 281.00 L 222.00 281.00 L 221.00 280.00 L 219.00 280.00 L 216.00 278.00 L 214.00 278.00 L 213.00 277.00 L 211.00 277.00 L 208.00 275.00 L 206.00 275.00 L 205.00 274.00 L 204.00 274.00 L 203.00 273.00 L 200.00 272.00 L 198.00 270.00 L 195.00 269.00 L 190.00 265.00 L 187.00 264.00 L 185.00 262.00 L 184.00 262.00 L 182.00 260.00 L 181.00 260.00 L 176.00 256.00 L 173.00 255.00 L 171.00 253.00 L 170.00 253.00 L 168.00 251.00 L 167.00 251.00 L 164.00 249.00 L 162.00 249.00 L 161.00 248.00 L 159.00 248.00 L 158.00 247.00 L 143.00 247.00 L 142.00 248.00 L 136.00 248.00 L 135.00 249.00 L 131.00 249.00 L 130.00 250.00 L 127.00 250.00 L 126.00 251.00 L 124.00 251.00 L 123.00 252.00 L 121.00 252.00 L 120.00 253.00 L 118.00 253.00 L 117.00 254.00 L 115.00 254.00 L 114.00 255.00 L 113.00 255.00 L 112.00 256.00 L 111.00 256.00 L 110.00 257.00 L 109.00 257.00 L 108.00 258.00 L 107.00 258.00 L 106.00 259.00 L 103.00 260.00 L 101.00 262.00 L 100.00 262.00 L 98.00 264.00 L 97.00 264.00 L 94.00 267.00 L 93.00 267.00 L 80.00 280.00 L 80.00 281.00 L 76.00 285.00 L 76.00 286.00 L 74.00 288.00 L 74.00 289.00 L 70.00 294.00 L 69.00 297.00 L 67.00 299.00 L 67.00 300.00 L 66.00 301.00 L 66.00 302.00 L 65.00 303.00 L 65.00 304.00 L 64.00 305.00 L 64.00 306.00 L 63.00 307.00 L 63.00 308.00 Z
  M 83.00 337.00 L 85.00 334.00 L 85.00 332.00 L 86.00 331.00 L 86.00 329.00 L 88.00 326.00 L 88.00 324.00 L 89.00 323.00 L 89.00 322.00 L 91.00 320.00 L 91.00 319.00 L 92.00 318.00 L 92.00 317.00 L 93.00 316.00 L 93.00 315.00 L 94.00 314.00 L 95.00 311.00 L 97.00 309.00 L 97.00 308.00 L 99.00 306.00 L 99.00 305.00 L 101.00 303.00 L 101.00 302.00 L 114.00 289.00 L 115.00 289.00 L 120.00 285.00 L 121.00 285.00 L 126.00 282.00 L 128.00 282.00 L 131.00 280.00 L 133.00 280.00 L 134.00 279.00 L 137.00 279.00 L 138.00 278.00 L 143.00 278.00 L 144.00 277.00 L 152.00 277.00 L 153.00 278.00 L 156.00 279.00 L 158.00 281.00 L 159.00 281.00 L 164.00 285.00 L 167.00 286.00 L 169.00 288.00 L 170.00 288.00 L 172.00 290.00 L 173.00 290.00 L 178.00 294.00 L 181.00 295.00 L 183.00 297.00 L 184.00 297.00 L 185.00 298.00 L 186.00 298.00 L 187.00 299.00 L 188.00 299.00 L 189.00 300.00 L 190.00 300.00 L 195.00 303.00 L 197.00 303.00 L 198.00 304.00 L 199.00 304.00 L 200.00 305.00 L 202.00 305.00 L 205.00 307.00 L 207.00 307.00 L 208.00 308.00 L 210.00 308.00 L 211.00 309.00 L 213.00 309.00 L 214.00 310.00 L 217.00 310.00 L 218.00 311.00 L 220.00 311.00 L 221.00 312.00 L 225.00 312.00 L 226.00 313.00 L 229.00 313.00 L 230.00 314.00 L 235.00 314.00 L 236.00 315.00 L 244.00 315.00 L 245.00 316.00 L 266.00 316.00 L 267.00 315.00 L 274.00 315.00 L 275.00 314.00 L 280.00 314.00 L 281.00 313.00 L 285.00 313.00 L 286.00 312.00 L 289.00 312.00 L 290.00 311.00 L 292.00 311.00 L 293.00 310.00 L 296.00 310.00 L 297.00 309.00 L 299.00 309.00 L 300.00 308.00 L 302.00 308.00 L 303.00 307.00 L 305.00 307.00 L 308.00 305.00 L 310.00 305.00 L 313.00 303.00 L 315.00 303.00 L 316.00 302.00 L 317.00 302.00 L 318.00 301.00 L 319.00 301.00 L 320.00 300.00 L 321.00 300.00 L 322.00 299.00 L 323.00 299.00 L 324.00 298.00 L 327.00 297.00 L 329.00 295.00 L 332.00 294.00 L 337.00 290.00 L 340.00 289.00 L 342.00 287.00 L 343.00 287.00 L 345.00 285.00 L 346.00 285.00 L 348.00 283.00 L 349.00 283.00 L 351.00 281.00 L 354.00 280.00 L 356.00 278.00 L 357.00 278.00 L 358.00 277.00 L 366.00 277.00 L 367.00 278.00 L 372.00 278.00 L 373.00 279.00 L 376.00 279.00 L 377.00 280.00 L 379.00 280.00 L 380.00 281.00 L 382.00 281.00 L 383.00 282.00 L 384.00 282.00 L 385.00 283.00 L 386.00 283.00 L 387.00 284.00 L 388.00 284.00 L 389.00 285.00 L 392.00 286.00 L 394.00 288.00 L 395.00 288.00 L 399.00 292.00 L 400.00 292.00 L 403.00 295.00 L 403.00 296.00 L 410.00 303.00 L 411.00 306.00 L 413.00 308.00 L 413.00 309.00 L 417.00 314.00 L 417.00 315.00 L 418.00 316.00 L 418.00 317.00 L 419.00 318.00 L 419.00 319.00 L 420.00 320.00 L 420.00 321.00 L 423.00 326.00 L 423.00 328.00 L 424.00 329.00 L 424.00 331.00 L 426.00 334.00 L 426.00 336.00 L 427.00 337.00 L 427.00 339.00 L 428.00 340.00 L 428.00 342.00 L 429.00 343.00 L 429.00 346.00 L 430.00 347.00 L 430.00 350.00 L 431.00 351.00 L 431.00 354.00 L 432.00 355.00 L 432.00 359.00 L 433.00 360.00 L 433.00 363.00 L 434.00 364.00 L 434.00 369.00 L 435.00 370.00 L 435.00 375.00 L 436.00 376.00 L 436.00 383.00 L 437.00 384.00 L 437.00 392.00 L 438.00 393.00 L 438.00 417.00 L 439.00 418.00 L 439.00 428.00 L 438.00 429.00 L 438.00 437.00 L 437.00 438.00 L 437.00 442.00 L 436.00 443.00 L 436.00 445.00 L 435.00 446.00 L 435.00 448.00 L 434.00 449.00 L 434.00 450.00 L 433.00 451.00 L 433.00 452.00 L 432.00 453.00 L 431.00 456.00 L 429.00 458.00 L 429.00 459.00 L 424.00 464.00 L 424.00 465.00 L 423.00 466.00 L 422.00 466.00 L 417.00 471.00 L 416.00 471.00 L 414.00 473.00 L 413.00 473.00 L 412.00 474.00 L 411.00 474.00 L 406.00 477.00 L 404.00 477.00 L 403.00 478.00 L 401.00 478.00 L 400.00 479.00 L 398.00 479.00 L 397.00 480.00 L 393.00 480.00 L 392.00 481.00 L 380.00 481.00 L 379.00 482.00 L 131.00 482.00 L 130.00 481.00 L 119.00 481.00 L 118.00 480.00 L 113.00 480.00 L 112.00 479.00 L 110.00 479.00 L 109.00 478.00 L 107.00 478.00 L 106.00 477.00 L 104.00 477.00 L 103.00 476.00 L 102.00 476.00 L 101.00 475.00 L 100.00 475.00 L 99.00 474.00 L 96.00 473.00 L 93.00 470.00 L 92.00 470.00 L 82.00 460.00 L 82.00 459.00 L 78.00 454.00 L 78.00 453.00 L 76.00 450.00 L 76.00 448.00 L 75.00 447.00 L 75.00 445.00 L 74.00 444.00 L 74.00 442.00 L 73.00 441.00 L 73.00 437.00 L 72.00 436.00 L 72.00 425.00 L 71.00 424.00 L 71.00 423.00 L 72.00 422.00 L 72.00 395.00 L 73.00 394.00 L 73.00 385.00 L 74.00 384.00 L 74.00 377.00 L 75.00 376.00 L 75.00 371.00 L 76.00 370.00 L 76.00 365.00 L 77.00 364.00 L 77.00 360.00 L 78.00 359.00 L 78.00 356.00 L 79.00 355.00 L 79.00 351.00 L 80.00 350.00 L 80.00 348.00 L 81.00 347.00 L 81.00 344.00 L 82.00 343.00 L 82.00 340.00 L 83.00 339.00 Z
  M 237.00 0.00 L 236.00 1.00 L 230.00 1.00 L 229.00 2.00 L 225.00 2.00 L 224.00 3.00 L 221.00 3.00 L 220.00 4.00 L 217.00 4.00 L 216.00 5.00 L 214.00 5.00 L 213.00 6.00 L 211.00 6.00 L 210.00 7.00 L 208.00 7.00 L 207.00 8.00 L 205.00 8.00 L 204.00 9.00 L 203.00 9.00 L 202.00 10.00 L 201.00 10.00 L 200.00 11.00 L 199.00 11.00 L 198.00 12.00 L 197.00 12.00 L 196.00 13.00 L 195.00 13.00 L 194.00 14.00 L 191.00 15.00 L 189.00 17.00 L 186.00 18.00 L 184.00 20.00 L 183.00 20.00 L 181.00 22.00 L 180.00 22.00 L 177.00 25.00 L 176.00 25.00 L 170.00 31.00 L 169.00 31.00 L 160.00 40.00 L 160.00 41.00 L 154.00 47.00 L 154.00 48.00 L 151.00 51.00 L 151.00 52.00 L 147.00 57.00 L 146.00 60.00 L 144.00 62.00 L 144.00 63.00 L 143.00 64.00 L 143.00 65.00 L 142.00 66.00 L 142.00 67.00 L 141.00 68.00 L 141.00 69.00 L 140.00 70.00 L 140.00 71.00 L 137.00 76.00 L 137.00 78.00 L 136.00 79.00 L 136.00 81.00 L 135.00 82.00 L 135.00 84.00 L 134.00 85.00 L 134.00 87.00 L 133.00 88.00 L 133.00 91.00 L 132.00 92.00 L 132.00 95.00 L 131.00 96.00 L 131.00 100.00 L 130.00 101.00 L 130.00 107.00 L 129.00 108.00 L 129.00 137.00 L 130.00 138.00 L 130.00 144.00 L 131.00 145.00 L 131.00 150.00 L 132.00 151.00 L 132.00 154.00 L 133.00 155.00 L 133.00 158.00 L 134.00 159.00 L 134.00 161.00 L 135.00 162.00 L 135.00 164.00 L 136.00 165.00 L 136.00 167.00 L 138.00 170.00 L 138.00 172.00 L 139.00 173.00 L 139.00 174.00 L 140.00 175.00 L 140.00 176.00 L 141.00 177.00 L 141.00 178.00 L 142.00 179.00 L 143.00 182.00 L 145.00 184.00 L 146.00 187.00 L 148.00 189.00 L 148.00 190.00 L 150.00 192.00 L 150.00 193.00 L 156.00 200.00 L 156.00 201.00 L 164.00 209.00 L 164.00 210.00 L 165.00 210.00 L 174.00 219.00 L 175.00 219.00 L 182.00 225.00 L 183.00 225.00 L 185.00 227.00 L 188.00 228.00 L 193.00 232.00 L 194.00 232.00 L 197.00 234.00 L 199.00 234.00 L 200.00 235.00 L 201.00 235.00 L 206.00 238.00 L 208.00 238.00 L 209.00 239.00 L 211.00 239.00 L 212.00 240.00 L 214.00 240.00 L 215.00 241.00 L 217.00 241.00 L 218.00 242.00 L 221.00 242.00 L 222.00 243.00 L 225.00 243.00 L 226.00 244.00 L 232.00 244.00 L 233.00 245.00 L 239.00 245.00 L 240.00 246.00 L 264.00 246.00 L 265.00 245.00 L 271.00 245.00 L 272.00 244.00 L 277.00 244.00 L 278.00 243.00 L 281.00 243.00 L 282.00 242.00 L 285.00 242.00 L 286.00 241.00 L 289.00 241.00 L 290.00 240.00 L 292.00 240.00 L 293.00 239.00 L 295.00 239.00 L 298.00 237.00 L 300.00 237.00 L 301.00 236.00 L 302.00 236.00 L 303.00 235.00 L 304.00 235.00 L 305.00 234.00 L 306.00 234.00 L 307.00 233.00 L 308.00 233.00 L 309.00 232.00 L 310.00 232.00 L 311.00 231.00 L 314.00 230.00 L 316.00 228.00 L 317.00 228.00 L 319.00 226.00 L 320.00 226.00 L 322.00 224.00 L 323.00 224.00 L 330.00 218.00 L 331.00 218.00 L 347.00 202.00 L 347.00 201.00 L 350.00 198.00 L 350.00 197.00 L 353.00 194.00 L 353.00 193.00 L 356.00 190.00 L 357.00 187.00 L 359.00 185.00 L 359.00 184.00 L 360.00 183.00 L 360.00 182.00 L 361.00 181.00 L 361.00 180.00 L 362.00 179.00 L 362.00 178.00 L 363.00 177.00 L 363.00 176.00 L 366.00 171.00 L 366.00 169.00 L 368.00 166.00 L 368.00 164.00 L 369.00 163.00 L 369.00 161.00 L 370.00 160.00 L 370.00 158.00 L 371.00 157.00 L 371.00 154.00 L 372.00 153.00 L 372.00 149.00 L 373.00 148.00 L 373.00 143.00 L 374.00 142.00 L 374.00 136.00 L 375.00 135.00 L 375.00 110.00 L 374.00 109.00 L 374.00 103.00 L 373.00 102.00 L 373.00 97.00 L 372.00 96.00 L 372.00 93.00 L 371.00 92.00 L 371.00 89.00 L 370.00 88.00 L 370.00 86.00 L 369.00 85.00 L 369.00 83.00 L 368.00 82.00 L 368.00 80.00 L 367.00 79.00 L 367.00 77.00 L 364.00 72.00 L 364.00 70.00 L 363.00 69.00 L 363.00 68.00 L 362.00 67.00 L 361.00 64.00 L 359.00 62.00 L 358.00 59.00 L 356.00 57.00 L 356.00 56.00 L 354.00 54.00 L 354.00 53.00 L 348.00 46.00 L 348.00 45.00 L 340.00 37.00 L 340.00 36.00 L 339.00 35.00 L 338.00 35.00 L 329.00 26.00 L 328.00 26.00 L 321.00 20.00 L 318.00 19.00 L 316.00 17.00 L 313.00 16.00 L 311.00 14.00 L 310.00 14.00 L 309.00 13.00 L 308.00 13.00 L 307.00 12.00 L 306.00 12.00 L 301.00 9.00 L 299.00 9.00 L 296.00 7.00 L 294.00 7.00 L 293.00 6.00 L 291.00 6.00 L 290.00 5.00 L 288.00 5.00 L 287.00 4.00 L 284.00 4.00 L 283.00 3.00 L 280.00 3.00 L 279.00 2.00 L 275.00 2.00 L 274.00 1.00 L 268.00 1.00 L 267.00 0.00 Z
  M 238.00 30.00 L 250.00 30.00 L 251.00 29.00 L 252.00 29.00 L 253.00 30.00 L 265.00 30.00 L 266.00 31.00 L 271.00 31.00 L 272.00 32.00 L 276.00 32.00 L 277.00 33.00 L 279.00 33.00 L 280.00 34.00 L 282.00 34.00 L 283.00 35.00 L 285.00 35.00 L 286.00 36.00 L 288.00 36.00 L 289.00 37.00 L 290.00 37.00 L 291.00 38.00 L 292.00 38.00 L 293.00 39.00 L 296.00 40.00 L 298.00 42.00 L 301.00 43.00 L 303.00 45.00 L 304.00 45.00 L 307.00 48.00 L 308.00 48.00 L 314.00 54.00 L 315.00 54.00 L 321.00 60.00 L 321.00 61.00 L 327.00 67.00 L 327.00 68.00 L 330.00 71.00 L 331.00 74.00 L 335.00 79.00 L 335.00 80.00 L 336.00 81.00 L 336.00 83.00 L 339.00 88.00 L 339.00 90.00 L 340.00 91.00 L 340.00 92.00 L 341.00 93.00 L 341.00 95.00 L 342.00 96.00 L 342.00 99.00 L 343.00 100.00 L 343.00 104.00 L 344.00 105.00 L 344.00 111.00 L 345.00 112.00 L 345.00 134.00 L 344.00 135.00 L 344.00 141.00 L 343.00 142.00 L 343.00 145.00 L 342.00 146.00 L 342.00 149.00 L 341.00 150.00 L 341.00 152.00 L 340.00 153.00 L 340.00 155.00 L 339.00 156.00 L 339.00 158.00 L 338.00 159.00 L 338.00 160.00 L 337.00 161.00 L 337.00 162.00 L 336.00 163.00 L 336.00 164.00 L 335.00 165.00 L 334.00 168.00 L 332.00 170.00 L 332.00 171.00 L 331.00 172.00 L 331.00 173.00 L 329.00 175.00 L 329.00 176.00 L 325.00 180.00 L 325.00 181.00 L 310.00 196.00 L 309.00 196.00 L 302.00 202.00 L 299.00 203.00 L 297.00 205.00 L 296.00 205.00 L 295.00 206.00 L 294.00 206.00 L 293.00 207.00 L 292.00 207.00 L 287.00 210.00 L 285.00 210.00 L 284.00 211.00 L 282.00 211.00 L 281.00 212.00 L 279.00 212.00 L 278.00 213.00 L 275.00 213.00 L 274.00 214.00 L 271.00 214.00 L 270.00 215.00 L 264.00 215.00 L 263.00 216.00 L 241.00 216.00 L 240.00 215.00 L 234.00 215.00 L 233.00 214.00 L 230.00 214.00 L 229.00 213.00 L 225.00 213.00 L 222.00 211.00 L 220.00 211.00 L 219.00 210.00 L 217.00 210.00 L 216.00 209.00 L 215.00 209.00 L 214.00 208.00 L 213.00 208.00 L 212.00 207.00 L 211.00 207.00 L 210.00 206.00 L 209.00 206.00 L 208.00 205.00 L 205.00 204.00 L 203.00 202.00 L 202.00 202.00 L 200.00 200.00 L 199.00 200.00 L 196.00 197.00 L 195.00 197.00 L 189.00 191.00 L 188.00 191.00 L 183.00 186.00 L 183.00 185.00 L 177.00 179.00 L 177.00 178.00 L 174.00 175.00 L 174.00 174.00 L 172.00 172.00 L 171.00 169.00 L 169.00 167.00 L 169.00 166.00 L 166.00 161.00 L 166.00 159.00 L 164.00 156.00 L 164.00 154.00 L 163.00 153.00 L 163.00 151.00 L 162.00 150.00 L 162.00 147.00 L 161.00 146.00 L 161.00 143.00 L 160.00 142.00 L 160.00 137.00 L 159.00 136.00 L 159.00 110.00 L 160.00 109.00 L 160.00 103.00 L 161.00 102.00 L 161.00 99.00 L 162.00 98.00 L 162.00 95.00 L 164.00 92.00 L 164.00 90.00 L 165.00 89.00 L 165.00 87.00 L 166.00 86.00 L 166.00 85.00 L 167.00 84.00 L 167.00 83.00 L 168.00 82.00 L 168.00 81.00 L 169.00 80.00 L 170.00 77.00 L 172.00 75.00 L 173.00 72.00 L 176.00 69.00 L 176.00 68.00 L 179.00 65.00 L 179.00 64.00 L 193.00 50.00 L 194.00 50.00 L 201.00 44.00 L 204.00 43.00 L 206.00 41.00 L 207.00 41.00 L 208.00 40.00 L 209.00 40.00 L 210.00 39.00 L 211.00 39.00 L 216.00 36.00 L 218.00 36.00 L 219.00 35.00 L 221.00 35.00 L 224.00 33.00 L 227.00 33.00 L 228.00 32.00 L 231.00 32.00 L 232.00 31.00 L 237.00 31.00 Z" fill="#000000" fill-rule="evenodd"/>
</svg>
