<svg xmlns="http://www.w3.org/2000/svg" width="512" height="512" viewBox="0 0 512 512">
  <path d="M 0 500 L 0 507 L 4 511 L 17 511 L 18 510 L 21 510 L 22 509 L 30 507 L 38 503 L 40 501 L 43 500 L 75 476 L 83 472 L 86 472 L 87 471 L 94 471 L 100 474 L 102 474 L 104 476 L 107 477 L 117 485 L 118 485 L 121 488 L 122 488 L 130 495 L 131 495 L 139 501 L 142 502 L 144 504 L 148 506 L 150 506 L 153 508 L 155 508 L 159 510 L 163 510 L 164 511 L 182 511 L 183 510 L 187 510 L 188 509 L 193 508 L 205 502 L 207 500 L 208 500 L 210 498 L 217 494 L 225 487 L 226 487 L 229 484 L 230 484 L 233 481 L 234 481 L 237 478 L 240 477 L 242 475 L 246 473 L 251 472 L 252 471 L 259 471 L 260 472 L 265 473 L 269 475 L 271 477 L 274 478 L 277 481 L 278 481 L 281 484 L 282 484 L 290 491 L 291 491 L 294 494 L 298 496 L 301 499 L 304 500 L 306 502 L 318 508 L 320 508 L 324 510 L 328 510 L 329 511 L 347 511 L 348 510 L 352 510 L 353 509 L 358 508 L 361 506 L 363 506 L 367 504 L 369 502 L 372 501 L 374 499 L 381 495 L 389 488 L 390 488 L 401 479 L 407 476 L 409 474 L 411 474 L 417 471 L 424 471 L 425 472 L 428 472 L 436 476 L 438 478 L 442 480 L 445 483 L 446 483 L 449 486 L 450 486 L 453 489 L 454 489 L 462 496 L 463 496 L 468 500 L 471 501 L 473 503 L 481 507 L 483 507 L 486 509 L 493 510 L 494 511 L 507 511 L 511 507 L 511 500 L 507 496 L 495 495 L 494 494 L 489 493 L 479 488 L 477 486 L 473 484 L 470 481 L 469 481 L 450 466 L 444 463 L 442 461 L 436 458 L 434 458 L 430 456 L 425 456 L 424 455 L 417 455 L 416 456 L 412 456 L 411 457 L 406 458 L 398 462 L 396 464 L 393 465 L 390 468 L 389 468 L 386 471 L 385 471 L 382 474 L 381 474 L 378 477 L 377 477 L 373 481 L 372 481 L 361 489 L 353 493 L 347 494 L 346 495 L 341 495 L 340 496 L 326 494 L 323 492 L 321 492 L 317 490 L 315 488 L 312 487 L 306 482 L 302 480 L 298 476 L 297 476 L 294 473 L 293 473 L 290 470 L 289 470 L 286 467 L 285 467 L 280 463 L 268 457 L 260 456 L 259 455 L 252 455 L 251 456 L 243 457 L 231 463 L 229 465 L 225 467 L 205 483 L 204 483 L 199 487 L 196 488 L 194 490 L 190 492 L 188 492 L 185 494 L 182 494 L 181 495 L 175 495 L 174 496 L 161 494 L 150 489 L 148 487 L 145 486 L 142 483 L 141 483 L 138 480 L 137 480 L 118 465 L 115 464 L 113 462 L 105 458 L 103 458 L 99 456 L 95 456 L 94 455 L 87 455 L 86 456 L 81 456 L 80 457 L 75 458 L 69 461 L 67 463 L 61 466 L 58 469 L 57 469 L 54 472 L 53 472 L 50 475 L 49 475 L 45 479 L 44 479 L 41 482 L 40 482 L 32 488 L 22 493 L 20 493 L 16 495 L 4 496 Z M 253 244 L 251 245 L 248 249 L 248 436 L 250 438 L 250 439 L 256 441 L 257 440 L 261 439 L 261 438 L 263 436 L 263 249 L 260 245 L 258 244 Z M 346 166 L 346 170 L 350 175 L 354 176 L 355 177 L 357 177 L 360 179 L 368 181 L 371 183 L 373 183 L 374 184 L 378 184 L 379 183 L 381 183 L 384 179 L 384 173 L 382 170 L 376 167 L 368 165 L 365 163 L 363 163 L 362 162 L 360 162 L 356 160 L 352 160 L 350 161 Z M 163 164 L 160 161 L 154 160 L 153 161 L 148 162 L 145 164 L 143 164 L 142 165 L 137 166 L 134 168 L 132 168 L 127 172 L 127 174 L 126 175 L 127 180 L 130 183 L 136 184 L 137 183 L 142 182 L 145 180 L 147 180 L 148 179 L 153 178 L 156 176 L 158 176 L 163 172 L 163 170 L 164 169 Z M 305 147 L 305 149 L 304 150 L 305 155 L 308 158 L 310 158 L 313 160 L 318 161 L 321 163 L 323 163 L 324 164 L 326 164 L 327 165 L 329 165 L 333 167 L 338 166 L 342 161 L 342 157 L 340 153 L 339 153 L 337 151 L 329 149 L 326 147 L 318 145 L 315 143 L 310 143 Z M 206 149 L 204 145 L 200 143 L 196 143 L 195 144 L 187 146 L 184 148 L 182 148 L 181 149 L 179 149 L 178 150 L 176 150 L 172 152 L 169 155 L 168 157 L 168 160 L 169 161 L 169 163 L 172 166 L 174 166 L 175 167 L 181 166 L 184 164 L 186 164 L 187 163 L 189 163 L 195 160 L 197 160 L 198 159 L 202 158 L 206 153 Z M 418 144 L 408 139 L 400 137 L 397 135 L 389 133 L 386 131 L 378 129 L 375 127 L 367 125 L 364 123 L 359 122 L 356 120 L 348 118 L 345 116 L 337 114 L 334 112 L 326 110 L 323 108 L 315 106 L 312 104 L 304 102 L 301 100 L 293 98 L 290 96 L 282 94 L 279 92 L 271 90 L 268 88 L 266 88 L 265 87 L 263 87 L 262 86 L 260 86 L 256 84 L 252 85 L 251 86 L 249 86 L 248 87 L 246 87 L 245 88 L 243 88 L 240 90 L 232 92 L 229 94 L 221 96 L 218 98 L 210 100 L 207 102 L 199 104 L 196 106 L 191 107 L 188 109 L 180 111 L 177 113 L 169 115 L 166 117 L 158 119 L 155 121 L 147 123 L 144 125 L 136 127 L 133 129 L 125 131 L 122 133 L 114 135 L 111 137 L 103 139 L 100 141 L 98 141 L 94 143 L 92 146 L 92 149 L 91 150 L 91 263 L 81 268 L 79 270 L 70 274 L 68 276 L 57 281 L 55 283 L 46 287 L 44 289 L 35 293 L 33 295 L 22 300 L 20 302 L 17 303 L 15 305 L 15 307 L 14 308 L 15 314 L 23 329 L 23 331 L 33 350 L 33 352 L 42 369 L 42 371 L 51 388 L 51 390 L 61 409 L 61 411 L 70 428 L 70 430 L 77 444 L 83 447 L 87 446 L 91 442 L 91 436 L 90 435 L 90 433 L 81 416 L 81 414 L 62 376 L 62 374 L 53 357 L 53 355 L 44 338 L 44 336 L 34 317 L 33 313 L 37 310 L 48 305 L 50 303 L 59 299 L 61 297 L 83 286 L 85 284 L 107 273 L 109 271 L 118 267 L 120 265 L 142 254 L 144 252 L 166 241 L 168 239 L 177 235 L 179 233 L 190 228 L 192 226 L 201 222 L 203 220 L 212 216 L 214 214 L 225 209 L 227 207 L 236 203 L 238 201 L 246 197 L 248 198 L 248 223 L 252 227 L 259 227 L 263 223 L 263 198 L 265 197 L 273 201 L 275 203 L 286 208 L 288 210 L 297 214 L 299 216 L 310 221 L 312 223 L 321 227 L 323 229 L 332 233 L 334 235 L 356 246 L 358 248 L 367 252 L 369 254 L 380 259 L 382 261 L 404 272 L 406 274 L 415 278 L 417 280 L 428 285 L 430 287 L 439 291 L 441 293 L 452 298 L 454 300 L 463 304 L 465 306 L 476 311 L 478 313 L 477 317 L 458 355 L 458 357 L 449 374 L 449 376 L 439 395 L 439 397 L 421 433 L 421 435 L 420 436 L 420 440 L 421 442 L 424 445 L 426 445 L 427 446 L 432 445 L 435 442 L 440 432 L 440 430 L 460 390 L 460 388 L 469 371 L 469 369 L 479 350 L 479 348 L 496 314 L 497 308 L 496 307 L 496 305 L 491 301 L 482 297 L 480 295 L 469 290 L 467 288 L 458 284 L 456 282 L 445 277 L 443 275 L 434 271 L 432 269 L 420 263 L 420 149 L 419 148 Z M 107 156 L 111 153 L 119 151 L 122 149 L 130 147 L 133 145 L 141 143 L 144 141 L 152 139 L 155 137 L 163 135 L 166 133 L 174 131 L 177 129 L 185 127 L 188 125 L 196 123 L 199 121 L 207 119 L 210 117 L 218 115 L 221 113 L 229 111 L 232 109 L 240 107 L 243 105 L 251 103 L 254 101 L 257 101 L 263 104 L 271 106 L 274 108 L 282 110 L 285 112 L 293 114 L 296 116 L 304 118 L 307 120 L 315 122 L 318 124 L 326 126 L 329 128 L 337 130 L 340 132 L 348 134 L 351 136 L 359 138 L 362 140 L 367 141 L 370 143 L 378 145 L 381 147 L 383 147 L 384 148 L 392 150 L 395 152 L 400 153 L 404 156 L 404 253 L 403 254 L 397 251 L 395 249 L 386 245 L 384 243 L 375 239 L 373 237 L 362 232 L 360 230 L 349 225 L 347 223 L 338 219 L 336 217 L 327 213 L 325 211 L 314 206 L 312 204 L 303 200 L 301 198 L 290 193 L 288 191 L 279 187 L 277 185 L 268 181 L 266 179 L 258 175 L 253 175 L 247 178 L 245 180 L 234 185 L 232 187 L 223 191 L 221 193 L 199 204 L 197 206 L 175 217 L 173 219 L 164 223 L 162 225 L 153 229 L 151 231 L 140 236 L 138 238 L 129 242 L 127 244 L 116 249 L 114 251 L 108 254 L 107 253 Z M 224 0 L 220 4 L 220 76 L 224 80 L 231 80 L 235 76 L 235 16 L 236 15 L 275 15 L 276 16 L 276 76 L 280 80 L 287 80 L 291 76 L 291 4 L 287 0 Z" fill="#000000" fill-rule="evenodd"/>
</svg>
